<svg width="512" height="512" xmlns="http://www.w3.org/2000/svg">

 <g>
  <title>background</title>
  <rect fill="none" id="canvas_background" height="402" width="582" y="-1" x="-1"/>
 </g>
 <g>
  <title>Layer 1</title>
  <path id="svg_2" fill="#ffffff" d="m343.193,22l-174.873,0c-80.466,0 -145.32,64.863 -145.32,144.958l0,174.079c0,80.1 64.854,145.963 145.32,145.963l174.873,0c80.467,0 146.807,-65.863 146.807,-145.963l0,-174.079c0,-80.095 -66.34,-144.958 -146.807,-144.958zm102.807,319.037c0,55.988 -46.562,101.963 -102.807,101.963l-174.873,0c-56.249,0 -102.32,-45.975 -102.32,-101.963l0,-174.079c0,-55.985 46.071,-101.958 102.32,-101.958l174.873,0c56.245,0 102.807,45.973 102.807,101.958l0,174.079z"/>
  <path id="svg_3" fill="#ffffff" d="m255.756,137.947c-64.382,0 -116.581,51.961 -116.581,116.055c0,64.085 52.199,116.045 116.581,116.045c64.383,0 116.58,-51.96 116.58,-116.045c0,-64.094 -52.197,-116.055 -116.58,-116.055zm0,188.584c-40.164,0 -72.86,-32.551 -72.86,-72.529c0,-40.016 32.696,-72.534 72.86,-72.534c40.162,0 72.861,32.519 72.861,72.534c0,39.978 -32.699,72.529 -72.861,72.529z"/>
  <path id="svg_4" fill="#ffffff" d="m381.08,113.779c-8.581,0 -15.538,6.924 -15.538,15.463c0,8.54 6.957,15.467 15.538,15.467c8.573,0 15.532,-6.927 15.532,-15.467c0,-8.539 -6.959,-15.463 -15.532,-15.463z"/>
 </g>
</svg>